# xmcd CD database file
#
# Track frame offsets:
#	150
#	29962
#	53822
#	69017
#	91732
#	104507
#	117662
#	135757
#	165207
#	186495
#	208907
#	228137
#	246177
#
# Disc length: 3398 seconds
#
# Revision: 1
# Processed by: cddbd v1.5.2PL0 Copyright (c) Steve Scherf et al.
# Submitted via: CDex 1.51
#
DISCID=ae0d440d
DTITLE=Lars Danielsson, Zohar Fresco, Leszek Mo¿d¿er - The Time
DYEAR=2006
DGENRE=Jazz
TTITLE0=Asta
TTITLE1=Incognitor
TTITLE2=Sortorello
TTITLE3=Tsunami
TTITLE4=The Time
TTITLE5=Asta 2nd Time
TTITLE6=Easy Money
TTITLE7=Smells Like Teen Spirit
TTITLE8=Svantetic
TTITLE9=Suffering
TTITLE10=Trip To Bexbach
TTITLE11=Asta 3rd Time
TTITLE12=Suffering ( Bonus Track)
EXTD=YEAR: 2006
EXTT0=
EXTT1=
EXTT2=
EXTT3=
EXTT4=
EXTT5=
EXTT6=
EXTT7=
EXTT8=
EXTT9=
EXTT10=
EXTT11=
EXTT12=
PLAYORDER=
